HIERARCHY
ROOT Hips
{
	OFFSET	0.00	0.00	0.00
	CHANNELS 6 Xposition Yposition Zposition Zrotation Xrotation Yrotation
	JOINT LeftUpLeg
	{
		OFFSET	 0.126116	-0.014019	-0.065224
		CHANNELS 3 Zrotation Xrotation Yrotation
		JOINT LeftLeg
		{
			OFFSET	 0.000000	 0.000000	 0.569914
			CHANNELS 3 Zrotation Xrotation Yrotation
			JOINT LeftFoot
			{
				OFFSET	 0.000000	 0.000000	 0.544423
				CHANNELS 3 Zrotation Xrotation Yrotation
				JOINT LeftToeBase
				{
					OFFSET	 0.000000	 0.000000	 0.207117
					CHANNELS 3 Zrotation Xrotation Yrotation
					End Site
					{
						OFFSET	 0.000000	 0.000000	 0.207117
					}
				}
			}
		}
	}
	JOINT RightUpLeg
	{
		OFFSET	-0.124023	-0.008373	-0.065224
		CHANNELS 3 Zrotation Xrotation Yrotation
		JOINT RightLeg
		{
			OFFSET	 0.000000	 0.000000	 0.570047
			CHANNELS 3 Zrotation Xrotation Yrotation
			JOINT RightFoot
			{
				OFFSET	 0.000000	 0.000000	 0.544354
				CHANNELS 3 Zrotation Xrotation Yrotation
				JOINT RightToeBase
				{
					OFFSET	 0.000000	 0.000000	 0.207540
					CHANNELS 3 Zrotation Xrotation Yrotation
					End Site
					{
						OFFSET	 0.000000	 0.000000	 0.207540
					}
				}
			}
		}
	}
	JOINT Spine
	{
		OFFSET	 0.000184	-0.007763	 0.117403
		CHANNELS 3 Zrotation Xrotation Yrotation
		JOINT Spine1
		{
			OFFSET	 0.000000	 0.000000	 0.137269
			CHANNELS 3 Zrotation Xrotation Yrotation
			JOINT Spine2
			{
				OFFSET	 0.000000	 0.000000	 0.156879
				CHANNELS 3 Zrotation Xrotation Yrotation
				JOINT LeftShoulder
				{
					OFFSET	 0.080501	-0.002496	 0.160144
					CHANNELS 3 Zrotation Xrotation Yrotation
					JOINT LeftArm
					{
						OFFSET	 0.000000	 0.000000	 0.164363
						CHANNELS 3 Zrotation Xrotation Yrotation
						JOINT LeftForeArm
						{
							OFFSET	 0.000000	 0.000000	 0.364576
							CHANNELS 3 Zrotation Xrotation Yrotation
							JOINT LeftHand
							{
								OFFSET	 0.000000	 0.000000	 0.360812
								CHANNELS 3 Zrotation Xrotation Yrotation
								JOINT LeftHandIndex1
								{
									OFFSET	 0.000000	 0.000000	 0.086006
									CHANNELS 3 Zrotation Xrotation Yrotation
									JOINT LeftHandIndex2
									{
										OFFSET	 0.000000	 0.000000	 0.047236
										CHANNELS 3 Zrotation Xrotation Yrotation
										JOINT LeftHandIndex3
										{
											OFFSET	-0.004284	-0.000551	 0.038166
											CHANNELS 3 Zrotation Xrotation Yrotation
											End Site
											{
												OFFSET	-0.004284	-0.000551	 0.038166
											}
										}
									}
								}
							}
						}
					}
				}
				JOINT Neck
				{
					OFFSET	 0.000000	 0.000000	 0.176489
					CHANNELS 3 Zrotation Xrotation Yrotation
					JOINT Head
					{
						OFFSET	 0.000000	-0.001747	 0.077940
						CHANNELS 3 Zrotation Xrotation Yrotation
						End Site
						{
							OFFSET	 0.000000	-0.001747	 0.077940
						}
					}
				}
				JOINT RightShoulder
				{
					OFFSET	-0.080363	 0.000306	 0.159706
					CHANNELS 3 Zrotation Xrotation Yrotation
					JOINT RightArm
					{
						OFFSET	 0.000000	 0.000000	 0.164196
						CHANNELS 3 Zrotation Xrotation Yrotation
						JOINT RightForeArm
						{
							OFFSET	 0.000000	 0.000000	 0.365611
							CHANNELS 3 Zrotation Xrotation Yrotation
							JOINT RightHand
							{
								OFFSET	 0.000000	 0.000000	 0.360648
								CHANNELS 3 Zrotation Xrotation Yrotation
								JOINT RightHandIndex1
								{
									OFFSET	 0.000000	 0.000000	 0.069977
									CHANNELS 3 Zrotation Xrotation Yrotation
									JOINT RightHandIndex2
									{
										OFFSET	 0.000000	 0.000000	 0.052305
										CHANNELS 3 Zrotation Xrotation Yrotation
										JOINT RightHandIndex3
										{
											OFFSET	 0.009002	-0.000782	 0.042196
											CHANNELS 3 Zrotation Xrotation Yrotation
											End Site
											{
												OFFSET	 0.009002	-0.000782	 0.042196
											}
										}
									}
								}
							}
						}
					}
				}
			}
		}
	}
}
MOTION
Frames:    5
Frame Time: 0.03333334
 0.113343	 3.072832	 0.657572	 1.500779	-2.018062	-0.101297	 6.292397	-1.100405	-178.177900	-2.696383	-34.645170	 1.096479	 67.240360	 89.972030	-66.424140	-2.376572	 30.349800	-0.041548	 1.747221	-30.653280	 179.546900	 18.488860	-70.726720	 21.871940	-179.467800	 88.881620	-173.099600	 2.378125	 29.764270	 0.030040	-2.858795	 4.374379	 1.546557	-3.922254	-1.829050	 0.863971	-3.338279	-4.475898	-0.350395	-91.789910	 78.246890	 178.866800	 35.520650	 63.146910	-47.876960	-8.888959	-4.297745	-33.229370	 3.695185	-2.111374	-5.366145	-3.812334	 37.924440	-2.927599	-2.450526	 36.184240	 0.754587	-1.378229	 35.397820	-2.634230	-0.328922	 4.074887	-2.031004	-0.351338	-11.937380	-1.564884	 89.790250	 78.580970	 179.501100	-41.756900	 71.398380	 43.520650	 1.744512	-7.610765	 29.364380	-12.990550	-3.206287	 9.588520	 6.437017	 35.671460	-0.771858	 2.830251	 35.756010	-7.813440	-2.350882	 35.473990	 5.254307
 0.119055	 3.004834	 0.654366	 1.777231	-1.489575	-0.761168	 5.998999	 4.807424	-177.078800	-3.353650	-28.583930	 0.946072	 10.812710	 89.536910	-10.189700	-2.372672	 31.056010	-0.057323	 2.121901	-33.862740	 179.767100	 11.330030	-60.632000	 13.953640	-168.567400	 89.190370	 176.445500	 2.380326	 29.321150	 0.020295	-2.933658	 4.200829	 2.319488	-4.088784	-1.917347	 0.801061	-3.384809	-4.565281	-0.357901	-91.764380	 78.741090	 178.760400	 34.817180	 61.596810	-49.313290	-8.651297	-4.504780	-35.355510	 3.701734	-2.096777	-5.368808	-3.812334	 37.924440	-2.927599	-2.450526	 36.184240	 0.754587	-1.378229	 35.397820	-2.634230	-0.367912	 4.265608	-2.598906	-0.237614	-12.349080	-1.392308	 89.779450	 78.091740	 179.448800	-41.604390	 71.602090	 42.580630	 1.992390	-7.710993	 30.452640	-12.686470	-3.198165	 9.593567	 6.437017	 35.671460	-0.771858	 2.830251	 35.756010	-7.813440	-2.350882	 35.473990	 5.254307
 0.122953	 2.936566	 0.652023	 1.982090	-0.863174	-1.023624	 7.065333	 12.442830	-176.921700	-3.739148	-18.628270	 1.396241	 4.684753	 86.728650	-2.607928	-2.358035	 33.371050	-0.110285	 2.655174	-35.308090	 179.706000	 7.522005	-49.857950	 9.402198	-144.712400	 89.580350	 152.901400	 2.388674	 27.432770	-0.020551	-2.858993	 3.824701	 2.619025	-4.060076	-2.056356	 0.808345	-3.337878	-4.584482	-0.353490	-91.755150	 78.903780	 178.748100	 34.377470	 60.578560	-50.401890	-8.647075	-4.507329	-36.408720	 3.532880	-2.112784	-5.366208	-3.812334	 37.924440	-2.927599	-2.450526	 36.184240	 0.754587	-1.378229	 35.397820	-2.634230	-0.258449	 4.400189	-2.992951	-0.148360	-12.544380	-1.340302	 89.775850	 77.930270	 179.456900	-41.433810	 71.925600	 42.136630	 2.083702	-7.664108	 30.219620	-12.744990	-3.201396	 9.591672	 6.437017	 35.671460	-0.771858	 2.830251	 35.756010	-7.813440	-2.350882	 35.473990	 5.254307
 0.125714	 2.865115	 0.648568	 2.420214	-0.810288	-1.284710	 8.271006	 19.384440	-177.011800	-3.942042	-11.617580	 1.587886	 3.718137	 84.146230	 0.207843	-2.324020	 37.512290	-0.210842	 3.246219	-35.821710	 179.780400	 4.178802	-40.946060	 5.938340	-165.097000	 89.337070	 172.459400	 2.376773	 30.026800	 0.035831	-2.853017	 3.669160	 2.750037	-4.016168	-2.145545	 0.857093	-3.216384	-4.562035	-0.339992	-91.753300	 78.926200	 178.717200	 34.534160	 60.251030	-51.605860	-8.669534	-4.499873	-36.307610	 3.550192	-2.113869	-5.365922	-3.812334	 37.924440	-2.927599	-2.450526	 36.184240	 0.754587	-1.378229	 35.397820	-2.634230	-0.122054	 4.325151	-3.234156	 0.016754	-12.411460	-1.122475	 89.774510	 77.905300	 179.396300	-41.158130	 72.394820	 41.975220	 1.939628	-7.474360	 28.622720	-13.228100	-3.215754	 9.582727	 6.437017	 35.671460	-0.771858	 2.830251	 35.756010	-7.813440	-2.350882	 35.473990	 5.254307
 0.125759	 2.770412	 0.645455	 3.238858	-0.977373	-1.246994	 8.509921	 24.011190	-178.647100	-2.672828	-11.588630	 1.789163	 5.095669	 82.688420	-0.114184	-2.260834	 42.961600	-0.358085	 3.063100	-34.630200	 179.422700	 3.009709	-37.363580	 4.603337	 174.814800	 89.323910	-168.197700	 2.369384	 31.357060	 0.065592	-3.028321	 3.714286	 2.333276	-4.067110	-2.094759	 0.785115	-3.131649	-4.455348	-0.328138	-91.762190	 78.761590	 178.652400	 35.757440	 60.856050	-52.904080	-8.528714	-4.470594	-34.402500	 3.864853	-2.104540	-5.367214	-3.812334	 37.924440	-2.927599	-2.450526	 36.184240	 0.754587	-1.378229	 35.397820	-2.634230	-0.106217	 4.163208	-3.236298	 0.165033	-11.969660	-0.553116	 89.778080	 78.069500	 179.297900	-39.747710	 73.197190	 40.513520	 1.835158	-7.143093	 26.208400	-13.980830	-3.242963	 9.564680	 6.437017	 35.671460	-0.771858	 2.830251	 35.756010	-7.813440	-2.350882	 35.473990	 5.254307
